<?xml version="1.0" standalone="no"?>
<!DOCTYPE svg PUBLIC "-//W3C//DTD SVG 20010904//EN"
        "http://www.w3.org/TR/2001/REC-SVG-20010904/DTD/svg10.dtd">
<svg version="1.0" xmlns="http://www.w3.org/2000/svg"
     width="70.000000pt" height="35.000000pt" viewBox="0 0 300.000000 123.000000"
     preserveAspectRatio="xMidYMid meet">
    <metadata>
        Created by potrace 1.10, written by Peter Selinger 2001-2011
    </metadata>
    <g transform="translate(0.000000,123.000000) scale(0.100000,-0.100000)"
       fill="#000000" stroke="none">
        <path d="M1050 1050 c-66 -8 -116 -33 -205 -100 -37 -28 -83 -59 -103 -69 -49
-25 -68 -47 -81 -96 -17 -62 -13 -74 12 -30 26 46 73 80 130 96 23 6 138 11
266 12 166 0 213 3 176 10 -27 4 -134 9 -237 10 -104 1 -188 5 -188 8 0 12
106 89 151 108 59 26 180 45 251 38 76 -7 117 -34 170 -112 39 -58 47 -64 83
-69 22 -3 101 -12 175 -21 168 -20 300 -48 356 -76 33 -16 47 -18 63 -10 28
15 104 14 206 -4 158 -28 103 -2 -95 44 -110 26 -395 67 -579 83 -136 12 -144
13 -159 38 -9 14 -33 46 -54 71 -21 26 -38 49 -38 51 0 11 310 -42 353 -61 27
-12 79 -41 118 -66 69 -44 90 -51 47 -14 -65 55 -168 109 -248 130 -119 30
-436 47 -570 29z"/>
        <path d="M847 830 c-35 -5 -72 -17 -97 -34 -40 -26 -98 -101 -87 -112 3 -3 23
8 44 25 62 50 95 55 165 25 l60 -25 292 3 c281 3 293 4 340 27 63 30 103 24
176 -27 98 -69 115 -75 230 -78 91 -3 99 -2 60 7 -120 28 -153 41 -190 76 -66
59 -51 67 68 31 52 -15 86 -33 118 -61 59 -52 69 -40 13 17 -31 31 -60 49 -99
60 -67 20 -279 51 -453 65 -142 12 -549 13 -640 1z m623 -34 c14 -2 38 -4 55
-4 26 -2 28 -4 14 -17 -24 -25 -97 -32 -341 -34 -218 -2 -239 0 -292 19 -32
12 -55 25 -51 28 15 15 127 20 350 16 132 -3 251 -7 265 -8z"/>
        <path d="M2084 726 c-28 -74 99 -168 225 -165 89 2 99 16 13 17 -101 1 -160
25 -193 78 -35 58 -25 64 93 57 148 -8 170 -17 185 -73 l11 -45 1 38 c2 71
-44 92 -221 103 -95 6 -108 5 -114 -10z"/>
        <path d="M745 712 l-30 -17 53 -5 c44 -4 56 -9 67 -30 11 -20 11 -29 -1 -52
-12 -23 -21 -27 -66 -30 l-53 -3 28 -19 c37 -25 81 -24 117 2 29 22 36 22 363
22 321 0 335 -1 352 -20 23 -26 91 -27 125 -3 l25 18 -53 5 c-44 4 -56 10 -69
31 -14 24 -14 28 2 52 15 23 24 27 69 27 l51 0 -30 20 c-39 26 -85 25 -119 -1
-25 -20 -39 -21 -354 -22 -323 -2 -327 -2 -362 20 -41 27 -74 28 -115 5z m815
-76 l0 -24 -337 0 c-339 0 -368 3 -342 35 8 9 91 12 345 12 l334 0 0 -23z"/>
        <path d="M241 353 c-45 -23 -71 -60 -78 -110 -11 -84 52 -153 141 -153 l46 0
0 60 0 60 -45 0 c-38 0 -45 -3 -45 -20 0 -15 7 -20 25 -20 18 0 25 -5 25 -20
0 -24 -11 -25 -50 -5 -36 19 -50 43 -50 88 0 48 46 87 101 87 36 0 40 2 37 23
-4 29 -59 34 -107 10z"/>
        <path d="M1444 355 c-3 -8 13 -71 36 -140 56 -169 64 -168 121 5 33 99 41 132
32 141 -21 21 -39 -6 -64 -91 -12 -44 -25 -80 -28 -80 -3 0 -19 41 -34 90 -19
61 -33 90 -43 90 -8 0 -17 -7 -20 -15z"/>
        <path d="M1857 363 c-4 -3 -7 -67 -7 -140 0 -134 0 -134 23 -131 18 2 22 10
23 38 0 33 2 35 35 36 46 1 75 18 94 54 24 46 19 78 -19 116 -30 30 -40 34
-88 34 -30 0 -58 -3 -61 -7z m117 -59 c37 -36 -1 -100 -54 -92 -19 3 -22 10
-24 56 l-1 52 32 0 c17 0 39 -7 47 -16z"/>
        <path d="M2788 365 c-3 -3 -3 -56 -1 -118 5 -96 9 -115 26 -135 16 -17 30 -22
57 -20 41 4 49 31 10 36 -40 6 -50 21 -50 73 0 46 2 49 25 49 18 0 25 5 25 20
0 15 -7 20 -24 20 -21 0 -25 5 -28 37 -3 35 -23 54 -40 38z"/>
        <path d="M435 286 c-59 -25 -74 -112 -29 -166 25 -29 30 -31 88 -28 l61 3 3
59 c4 76 -12 115 -54 132 -39 16 -32 16 -69 0z m64 -50 c17 -21 10 -87 -11
-100 -28 -17 -52 5 -56 48 -4 41 11 66 38 66 10 0 23 -6 29 -14z"/>
        <path d="M674 293 c-12 -2 -32 -15 -45 -29 -21 -22 -24 -36 -24 -97 0 -67 2
-72 23 -75 21 -3 22 0 22 65 0 74 10 93 47 93 27 0 42 28 22 41 -8 5 -16 8
-19 7 -3 0 -15 -3 -26 -5z"/>
        <path d="M802 284 c-39 -16 -52 -41 -52 -99 0 -36 6 -51 25 -71 22 -22 32 -24
87 -22 l63 3 0 72 c-1 61 -4 76 -24 96 -28 31 -60 38 -99 21z m66 -46 c7 -7
12 -28 12 -48 0 -20 -5 -41 -12 -48 -30 -30 -78 0 -78 48 0 48 48 78 78 48z"/>
        <path d="M1024 292 c-41 -6 -69 -49 -69 -104 0 -43 4 -53 29 -75 24 -20 37
-24 68 -20 39 5 50 -7 26 -31 -18 -18 -49 -14 -75 10 -31 29 -53 12 -35 -27
10 -23 17 -25 70 -25 83 0 92 12 92 126 0 63 -4 96 -15 111 -17 24 -60 40 -91
35z m50 -58 c33 -33 10 -104 -33 -104 -27 0 -41 21 -41 60 0 56 39 79 74 44z"/>
        <path d="M1202 284 c-53 -22 -66 -122 -21 -170 27 -28 82 -32 117 -8 45 31 18
62 -30 35 -21 -12 -32 -13 -45 -5 -37 23 -26 34 36 34 l61 0 0 34 c0 66 -58
106 -118 80z m66 -46 c21 -21 13 -28 -28 -28 -22 0 -40 4 -40 8 0 14 23 32 40
32 9 0 21 -5 28 -12z"/>
        <path d="M2112 284 c-39 -16 -52 -41 -52 -99 0 -36 6 -51 25 -71 22 -22 32
-24 87 -22 l63 3 0 72 c0 61 -3 75 -23 96 -29 31 -61 38 -100 21z m66 -46 c7
-7 12 -28 12 -48 0 -20 -5 -41 -12 -48 -30 -30 -78 0 -78 48 0 48 48 78 78 48z"/>
        <path d="M2335 286 c-40 -17 -55 -53 -55 -132 0 -62 1 -65 23 -62 20 3 22 9
25 68 3 71 13 90 48 90 29 0 40 16 24 35 -15 18 -26 18 -65 1z"/>
        <path d="M2494 286 c-40 -18 -56 -58 -52 -132 3 -51 6 -59 23 -59 18 0 20 8
23 65 3 71 13 90 48 90 29 0 40 16 24 35 -15 18 -26 18 -66 1z"/>
        <path d="M2655 292 c-43 -8 -65 -42 -65 -99 0 -68 29 -103 85 -103 54 0 85 36
85 98 0 75 -42 116 -105 104z m53 -54 c29 -29 5 -108 -33 -108 -24 0 -45 30
-45 64 0 37 15 56 45 56 12 0 26 -5 33 -12z"/>
        <path d="M1654 136 c-11 -28 4 -48 33 -44 22 2 28 8 28 28 0 20 -6 26 -28 28
-18 2 -29 -2 -33 -12z"/>
    </g>
</svg>
